<?xml version="1.0" encoding="UTF-8" standalone="no"?>
<!DOCTYPE svg PUBLIC "-//W3C//DTD SVG 1.1//EN"
 "http://www.w3.org/Graphics/SVG/1.1/DTD/svg11.dtd">
<!-- Generated by graphviz version 2.43.0 (0)
 -->
<!-- Title: G Pages: 1 -->
<svg width="603pt" height="123pt"
 viewBox="0.00 0.00 602.66 122.55" xmlns="http://www.w3.org/2000/svg" xmlns:xlink="http://www.w3.org/1999/xlink">
<g id="graph0" class="graph" transform="scale(1 1) rotate(0) translate(4 118.55)">
<title>G</title>
<!-- offline -->
<g id="node1" class="node">
<title>offline</title>
<polygon fill="#a00000" stroke="black" stroke-width="0" points="75.52,-56 56.6,-74 18.75,-74 -0.17,-56 18.75,-38 56.6,-38 75.52,-56"/>
<text text-anchor="middle" x="37.67" y="-52.9" font-family="sans-serif" font-size="12.00" fill="white">offline</text>
</g>
<!-- starting -->
<g id="node2" class="node">
<title>starting</title>
<polygon fill="#a0a000" stroke="black" stroke-width="0" points="199.56,-79 177.49,-97 133.35,-97 111.28,-79 133.35,-61 177.49,-61 199.56,-79"/>
<text text-anchor="middle" x="155.42" y="-75.9" font-family="sans-serif" font-size="12.00" fill="white">starting</text>
</g>
<!-- offline&#45;&gt;starting -->
<g id="edge1" class="edge">
<title>offline&#45;&gt;starting</title>
<path fill="none" stroke="#00a000" d="M69.39,-62.1C81.66,-64.54 96.04,-67.4 109.45,-70.06"/>
<polygon fill="#00a000" stroke="#00a000" points="108.98,-73.54 119.47,-72.05 110.34,-66.67 108.98,-73.54"/>
</g>
<!-- peering -->
<g id="node3" class="node">
<title>peering</title>
<polygon fill="#a0a000" stroke="black" stroke-width="0" points="335.57,-95 313.96,-113 270.74,-113 249.13,-95 270.74,-77 313.96,-77 335.57,-95"/>
<text text-anchor="middle" x="292.35" y="-91.9" font-family="sans-serif" font-size="12.00" fill="white">peering</text>
</g>
<!-- starting&#45;&gt;peering -->
<g id="edge2" class="edge">
<title>starting&#45;&gt;peering</title>
<path fill="none" stroke="#00a000" d="M194.36,-83.5C209.71,-85.32 227.6,-87.44 243.8,-89.36"/>
<polygon fill="#00a000" stroke="#00a000" points="243.82,-92.89 254.16,-90.59 244.64,-85.94 243.82,-92.89"/>
</g>
<!-- incomplete -->
<g id="node5" class="node">
<title>incomplete</title>
<polygon fill="#a00000" stroke="black" stroke-width="0" points="349.09,-41 320.72,-59 263.99,-59 235.62,-41 263.99,-23 320.72,-23 349.09,-41"/>
<text text-anchor="middle" x="292.35" y="-37.9" font-family="sans-serif" font-size="12.00" fill="white">incomplete</text>
</g>
<!-- starting&#45;&gt;incomplete -->
<g id="edge5" class="edge">
<title>starting&#45;&gt;incomplete</title>
<path fill="none" stroke="#00a000" d="M188.74,-69.9C204.92,-65.34 224.85,-59.73 242.82,-54.67"/>
<polygon fill="#00a000" stroke="#00a000" points="243.9,-58 252.57,-51.92 242,-51.26 243.9,-58"/>
</g>
<!-- peering&#45;&gt;offline -->
<g id="edge3" class="edge">
<title>peering&#45;&gt;offline</title>
<path fill="none" stroke="#00a000" d="M259.32,-103.69C222.67,-112.11 161.28,-121.52 111.35,-106 94.55,-100.78 78.2,-90.18 65.27,-80.08"/>
<polygon fill="#00a000" stroke="#00a000" points="67.26,-77.19 57.3,-73.58 62.84,-82.61 67.26,-77.19"/>
</g>
<!-- active -->
<g id="node6" class="node">
<title>active</title>
<polygon fill="#00a000" stroke="black" stroke-width="0" points="456.34,-49 438.55,-67 402.97,-67 385.18,-49 402.97,-31 438.55,-31 456.34,-49"/>
<text text-anchor="middle" x="420.76" y="-45.9" font-family="sans-serif" font-size="12.00" fill="white">active</text>
</g>
<!-- peering&#45;&gt;active -->
<g id="edge9" class="edge">
<title>peering&#45;&gt;active</title>
<path fill="none" stroke="#00a000" d="M322.99,-84.22C341.47,-77.49 365.34,-68.8 384.75,-61.74"/>
<polygon fill="#00a000" stroke="#00a000" points="385.96,-65.03 394.16,-58.32 383.56,-58.45 385.96,-65.03"/>
</g>
<!-- stopping -->
<g id="node4" class="node">
<title>stopping</title>
<polygon fill="#a0a000" stroke="black" stroke-width="0" points="591.65,-18 567.57,-36 519.39,-36 495.31,-18 519.39,0 567.57,0 591.65,-18"/>
<text text-anchor="middle" x="543.48" y="-14.9" font-family="sans-serif" font-size="12.00" fill="white">stopping</text>
</g>
<!-- stopping&#45;&gt;offline -->
<g id="edge4" class="edge">
<title>stopping&#45;&gt;offline</title>
<path fill="none" stroke="#00a000" d="M500.13,-14.3C440.78,-9.83 329.58,-4.07 235.49,-14 179.71,-19.89 116.5,-34.9 77.11,-45.29"/>
<polygon fill="#00a000" stroke="#00a000" points="76.14,-41.92 67.38,-47.89 77.94,-48.69 76.14,-41.92"/>
</g>
<!-- incomplete&#45;&gt;offline -->
<g id="edge6" class="edge">
<title>incomplete&#45;&gt;offline</title>
<path fill="none" stroke="#00a000" d="M240.25,-44.03C194.33,-46.76 127.57,-50.72 83.64,-53.33"/>
<polygon fill="#00a000" stroke="#00a000" points="83.32,-49.84 73.54,-53.93 83.73,-56.83 83.32,-49.84"/>
</g>
<!-- active&#45;&gt;stopping -->
<g id="edge10" class="edge">
<title>active&#45;&gt;stopping</title>
<path fill="none" stroke="#00a000" d="M449.46,-41.89C463.64,-38.25 481.26,-33.72 497.34,-29.59"/>
<polygon fill="#00a000" stroke="#00a000" points="498.29,-32.96 507.11,-27.08 496.55,-26.18 498.29,-32.96"/>
</g>
<!-- repeering -->
<g id="node7" class="node">
<title>repeering</title>
<polygon fill="#a0a000" stroke="black" stroke-width="0" points="594.84,-83 569.16,-101 517.8,-101 492.12,-83 517.8,-65 569.16,-65 594.84,-83"/>
<text text-anchor="middle" x="543.48" y="-79.9" font-family="sans-serif" font-size="12.00" fill="white">repeering</text>
</g>
<!-- active&#45;&gt;repeering -->
<g id="edge7" class="edge">
<title>active&#45;&gt;repeering</title>
<path fill="none" stroke="#00a000" d="M448.85,-56.63C462.9,-60.59 480.44,-65.53 496.53,-70.06"/>
<polygon fill="#00a000" stroke="#00a000" points="495.74,-73.47 506.32,-72.82 497.64,-66.74 495.74,-73.47"/>
</g>
<!-- repeering&#45;&gt;peering -->
<g id="edge8" class="edge">
<title>repeering&#45;&gt;peering</title>
<path fill="none" stroke="#00a000" d="M495.33,-85.27C451.99,-87.36 387.93,-90.44 343.63,-92.58"/>
<polygon fill="#00a000" stroke="#00a000" points="343.2,-89.09 333.38,-93.07 343.54,-96.09 343.2,-89.09"/>
</g>
</g>
</svg>
